<svg width="121" height="94" viewBox="0 0 121 94" fill="none" xmlns="http://www.w3.org/2000/svg">
<path d="M25.492 14.536C25.492 18.056 27.604 20.036 29.056 20.96C25.756 22.412 24.392 25.536 24.348 28.968C24.392 35.084 29.144 39.616 35.744 39.616C42.344 39.616 47.096 35.084 47.14 28.968C47.096 25.536 45.688 22.412 42.432 20.96C43.884 20.036 45.996 18.056 45.996 14.536C45.996 10.18 42.476 5.824 35.744 5.824C29.012 5.824 25.492 10.224 25.492 14.492V14.536ZM31.872 15.064C31.872 12.82 33.632 11.192 35.744 11.192C37.856 11.192 39.616 12.82 39.616 15.064C39.616 17.264 37.856 18.936 35.744 18.936C33.632 18.936 31.872 17.264 31.872 15.108V15.064ZM30.904 28.924C30.904 26.372 32.84 23.952 35.744 23.952C38.648 23.952 40.584 26.372 40.584 28.924C40.584 31.388 38.648 33.852 35.744 33.852C32.84 33.852 30.904 31.388 30.904 28.968V28.924ZM50.5088 27.736C50.5088 36.624 57.7688 39.616 62.3448 39.616C66.8768 39.616 73.9168 36.624 73.9168 27.736V17.704C73.9168 8.904 66.8328 5.824 62.2568 5.824C58.2088 5.824 50.5088 8.376 50.5088 17.792V27.736ZM57.0648 17.572C57.0648 14.712 58.5168 11.588 62.1688 11.588C66.6568 11.588 67.3608 15.68 67.3608 17.528V27.912C67.3608 30.42 65.8648 33.852 62.2128 33.852C58.6488 33.852 57.0648 30.86 57.0648 27.912V17.572ZM76.3015 23.394C76.3015 26.04 78.4345 28.146 81.0535 28.146C83.6995 28.146 85.8055 26.04 85.8055 23.394C85.8055 20.721 83.7265 18.642 81.0535 18.642C78.4075 18.642 76.3015 20.721 76.3015 23.367V23.394ZM78.7585 23.394C78.7585 22.044 79.7575 21.045 81.0535 21.045C82.3765 21.045 83.3755 22.044 83.3755 23.367C83.3755 24.717 82.3225 25.716 81.0535 25.716C79.7575 25.716 78.7585 24.69 78.7585 23.421V23.394ZM87.2635 34.626C87.2635 37.326 89.4235 39.378 92.0425 39.378C94.6345 39.378 96.7945 37.299 96.7945 34.626C96.7945 31.98 94.6885 29.874 92.0425 29.874C89.3695 29.874 87.2635 31.98 87.2635 34.599V34.626ZM89.7205 34.626C89.7205 33.303 90.6925 32.277 92.0425 32.277C93.3385 32.277 94.3375 33.276 94.3375 34.626C94.3375 35.949 93.3385 36.975 92.0425 36.975C90.7195 36.975 89.7205 35.949 89.7205 34.653V34.626ZM92.4205 19.02H89.8555L80.5675 39H83.1325L92.4205 19.02Z" fill="#F0E714"/>
<path d="M1.072 72.16V84H2.96V79.664H4.624C6.256 79.664 7.056 79.408 7.856 78.784C8.592 78.192 9.088 77.008 9.088 75.872C9.088 74.736 8.608 73.6 7.776 72.96C7.072 72.4 6.288 72.16 4.448 72.16H1.072ZM2.96 73.824H4.528C5.312 73.824 5.888 73.888 6.416 74.208C6.912 74.496 7.28 75.104 7.28 75.904C7.28 76.704 6.912 77.328 6.432 77.6C5.92 77.92 5.344 78 4.592 78H2.96V73.824ZM10.3693 84H12.0333V79.296C12.0333 77.568 12.8493 76.704 14.4173 76.704H14.5293V75.04C13.3453 75.056 12.4333 75.552 11.9373 76.576V75.296H10.3693V84ZM14.717 79.648C14.717 81.984 16.429 84.24 19.357 84.24C22.285 84.24 23.997 81.984 23.997 79.648C23.997 77.312 22.285 75.04 19.357 75.04C16.429 75.04 14.717 77.312 14.717 79.632V79.648ZM16.381 79.648C16.381 77.904 17.693 76.608 19.357 76.608C21.021 76.608 22.333 77.904 22.333 79.648C22.333 81.392 21.021 82.688 19.357 82.688C17.693 82.688 16.381 81.392 16.381 79.664V79.648ZM26.0654 73.936H27.7294V72.16H26.0654V73.936ZM27.7294 75.296H26.0654V83.904C26.0654 84.976 25.9854 85.856 24.8334 85.984C24.7534 86 24.6574 86 24.5614 86V87.328C24.7214 87.328 24.8814 87.328 25.0254 87.312C27.5054 87.152 27.7294 85.568 27.7294 83.856V75.296ZM38.6156 80.176C38.7596 78.72 38.3276 77.36 37.3036 76.32C36.4716 75.504 35.3356 75.04 34.0876 75.04C31.4476 75.04 29.4956 77.168 29.4956 79.664C29.4956 81.968 31.2556 84.256 34.1036 84.256C34.9836 84.256 35.8476 84.016 36.5836 83.52C37.3196 83.04 37.9276 82.32 38.3436 81.36H36.6156C36.1356 82.272 35.2716 82.832 34.1036 82.832C32.7916 82.832 31.2556 81.936 31.1756 80.176H38.6156ZM31.2076 78.88C31.2876 77.696 32.3916 76.464 34.0876 76.464C35.7356 76.432 36.8876 77.728 36.9676 78.88H31.2076ZM47.1083 80.944C46.7563 81.808 45.8443 82.688 44.3883 82.704C42.7243 82.704 41.4123 81.44 41.4123 79.648C41.4123 78.768 41.7483 77.952 42.2603 77.44C42.8683 76.864 43.5083 76.576 44.3883 76.592C45.5723 76.592 46.6603 77.248 47.1083 78.416H48.8203C48.2763 76.32 46.4043 75.04 44.3243 75.04C41.7163 75.04 39.7483 77.072 39.7483 79.648C39.7483 82.064 41.5563 84.256 44.4043 84.256C46.5803 84.256 48.2923 82.832 48.8203 80.944H47.1083ZM51.0558 84H52.7198V76.592H54.3998V75.296H52.7198V72.16H51.0558V75.296H49.4878V76.592H51.0558V84ZM64.544 80.496C64.576 82.784 66.08 84.224 68.432 84.224C70.96 84.224 72.256 82.56 72.256 80.64C72.256 78.72 70.88 77.968 69.408 77.344C67.504 76.64 66.624 76.352 66.624 75.2C66.624 74.192 67.456 73.536 68.416 73.536C69.776 73.536 70.064 74.56 70.192 75.2H72.048C71.904 72.768 70 71.936 68.48 71.936C66.624 71.936 64.736 73.136 64.752 75.344C64.752 77.568 66.816 78.256 67.744 78.56C69.264 79.12 70.384 79.424 70.384 80.736C70.384 81.792 69.472 82.624 68.416 82.624C67.792 82.624 66.544 82.272 66.416 80.496H64.544ZM81.8696 75.296H80.2056V80.16C80.2056 81.648 79.4536 82.688 77.8216 82.704C76.1096 82.704 75.5016 81.584 75.5016 80.016V75.296H73.8376V80.4C73.8376 82.208 74.5576 84.24 77.3576 84.256C78.9096 84.272 79.8856 83.552 80.3016 82.656V84H81.8696V75.296ZM90.9051 80.944C90.5531 81.808 89.6411 82.688 88.1851 82.704C86.5211 82.704 85.2091 81.44 85.2091 79.648C85.2091 78.768 85.5451 77.952 86.0571 77.44C86.6651 76.864 87.3051 76.576 88.1851 76.592C89.3691 76.592 90.4571 77.248 90.9051 78.416H92.6171C92.0731 76.32 90.2011 75.04 88.1211 75.04C85.5131 75.04 83.5451 77.072 83.5451 79.648C83.5451 82.064 85.3531 84.256 88.2011 84.256C90.3771 84.256 92.0891 82.832 92.6171 80.944H90.9051ZM101.093 80.944C100.741 81.808 99.8286 82.688 98.3726 82.704C96.7086 82.704 95.3966 81.44 95.3966 79.648C95.3966 78.768 95.7326 77.952 96.2446 77.44C96.8526 76.864 97.4926 76.576 98.3726 76.592C99.5566 76.592 100.645 77.248 101.093 78.416H102.805C102.261 76.32 100.389 75.04 98.3086 75.04C95.7006 75.04 93.7326 77.072 93.7326 79.648C93.7326 82.064 95.5406 84.256 98.3886 84.256C100.565 84.256 102.277 82.832 102.805 80.944H101.093ZM112.928 80.176C113.072 78.72 112.64 77.36 111.616 76.32C110.784 75.504 109.648 75.04 108.4 75.04C105.76 75.04 103.808 77.168 103.808 79.664C103.808 81.968 105.568 84.256 108.416 84.256C109.296 84.256 110.16 84.016 110.896 83.52C111.632 83.04 112.24 82.32 112.656 81.36H110.928C110.448 82.272 109.584 82.832 108.416 82.832C107.104 82.832 105.568 81.936 105.488 80.176H112.928ZM105.52 78.88C105.6 77.696 106.704 76.464 108.4 76.464C110.048 76.432 111.2 77.728 111.28 78.88H105.52ZM120.045 77.568C119.917 75.632 118.349 75.04 117.149 75.04C115.565 75.04 114.221 76.032 114.221 77.68C114.237 78.992 115.197 79.568 116.413 79.936C117.965 80.448 118.621 80.736 118.637 81.6C118.637 82.336 118.013 82.896 117.213 82.896C116.589 82.896 115.741 82.544 115.677 81.488H114.029C114.109 83.472 115.821 84.256 117.197 84.256C118.925 84.256 120.333 83.104 120.301 81.408C120.253 79.536 118.797 79.152 117.469 78.784C116.541 78.528 115.917 78.208 115.885 77.52C115.869 76.944 116.317 76.4 117.133 76.4C117.981 76.384 118.397 76.896 118.397 77.568H120.045Z" fill="white"/>
</svg>
