<svg width="143" height="94" viewBox="0 0 143 94" fill="none" xmlns="http://www.w3.org/2000/svg">
<path d="M33.832 39H55.964V33.456H42.808C45.404 30.948 48 28.484 50.552 26.02C54.38 22.368 55.744 19.684 55.788 15.9C55.788 10.532 51.916 5.824 45.096 5.824C42.764 5.824 38.54 6.528 35.988 10.18C34.184 12.6 33.788 15.284 33.7 17.792H39.992C40.036 14.448 41.356 11.588 44.524 11.588C47.208 11.588 49.232 13.26 49.232 16.472C49.188 20.212 46.592 22.456 43.336 25.316C40.168 28.176 37 30.992 33.832 33.852V39ZM59.5088 27.736C59.5088 36.624 66.7688 39.616 71.3448 39.616C75.8768 39.616 82.9168 36.624 82.9168 27.736V17.704C82.9168 8.904 75.8328 5.824 71.2568 5.824C67.2088 5.824 59.5088 8.376 59.5088 17.792V27.736ZM66.0648 17.572C66.0648 14.712 67.5168 11.588 71.1688 11.588C75.6568 11.588 76.3608 15.68 76.3608 17.528V27.912C76.3608 30.42 74.8648 33.852 71.2128 33.852C67.6488 33.852 66.0648 30.86 66.0648 27.912V17.572ZM100.41 16.78H94.8655V25.096H86.5935V30.684H94.8655V39H100.41V30.684H108.681V25.096H100.41V16.78Z" fill="#F0E714"/>
<path d="M3.904 84H5.792V79.792L9.504 72.16H7.456L4.848 78.016L2.24 72.16H0.192L3.904 79.792V84ZM17.6625 80.176C17.8065 78.72 17.3745 77.36 16.3505 76.32C15.5185 75.504 14.3825 75.04 13.1345 75.04C10.4945 75.04 8.5425 77.168 8.5425 79.664C8.5425 81.968 10.3025 84.256 13.1505 84.256C14.0305 84.256 14.8945 84.016 15.6305 83.52C16.3665 83.04 16.9745 82.32 17.3905 81.36H15.6625C15.1825 82.272 14.3185 82.832 13.1505 82.832C11.8385 82.832 10.3025 81.936 10.2225 80.176H17.6625ZM10.2545 78.88C10.3345 77.696 11.4385 76.464 13.1345 76.464C14.7825 76.432 15.9345 77.728 16.0145 78.88H10.2545ZM28.1551 75.296H26.4911V76.832C26.0911 76 24.9871 75.04 23.2591 75.04C20.7311 75.04 18.7951 76.992 18.7951 79.648C18.7951 82.08 20.4591 84.256 23.2591 84.256C24.6351 84.256 25.8831 83.648 26.4911 82.48V84H28.1551V75.296ZM20.4591 79.664C20.4591 78.032 21.6431 76.592 23.4671 76.592C24.8591 76.592 25.8351 77.376 26.2511 78.384C26.4431 78.784 26.5231 79.232 26.5071 79.68C26.4911 80.128 26.3951 80.576 26.2031 80.976C25.7711 81.968 24.8271 82.704 23.4991 82.704C21.3871 82.704 20.4751 80.976 20.4591 79.68V79.664ZM30.3536 84H32.0176V79.296C32.0176 77.568 32.8336 76.704 34.4016 76.704H34.5136V75.04C33.3296 75.056 32.4176 75.552 31.9216 76.576V75.296H30.3536V84ZM41.2166 77.568C41.0886 75.632 39.5206 75.04 38.3206 75.04C36.7366 75.04 35.3926 76.032 35.3926 77.68C35.4086 78.992 36.3686 79.568 37.5846 79.936C39.1366 80.448 39.7926 80.736 39.8086 81.6C39.8086 82.336 39.1846 82.896 38.3846 82.896C37.7606 82.896 36.9126 82.544 36.8486 81.488H35.2006C35.2806 83.472 36.9926 84.256 38.3686 84.256C40.0966 84.256 41.5046 83.104 41.4726 81.408C41.4246 79.536 39.9686 79.152 38.6406 78.784C37.7126 78.528 37.0886 78.208 37.0566 77.52C37.0406 76.944 37.4886 76.4 38.3046 76.4C39.1526 76.384 39.5686 76.896 39.5686 77.568H41.2166ZM47.4045 79.648C47.4045 81.984 49.1165 84.24 52.0445 84.24C54.9725 84.24 56.6845 81.984 56.6845 79.648C56.6845 77.312 54.9725 75.04 52.0445 75.04C49.1165 75.04 47.4045 77.312 47.4045 79.632V79.648ZM49.0685 79.648C49.0685 77.904 50.3805 76.608 52.0445 76.608C53.7085 76.608 55.0205 77.904 55.0205 79.648C55.0205 81.392 53.7085 82.688 52.0445 82.688C50.3805 82.688 49.0685 81.392 49.0685 79.664V79.648ZM58.5609 84H60.2249V76.592H61.8249V75.296H60.2249V74.784C60.2249 73.264 61.2649 73.264 61.8249 73.248V71.936C60.5929 71.952 58.5609 72.08 58.5609 74.704V75.296H57.3769V76.592H58.5609V84ZM72.5266 84H79.1506V82.336H74.4146V78.832H79.0866V77.184H74.4146V73.824H79.1506V72.16H72.5266V84ZM80.0644 84H82.0964L84.2244 80.768L86.3364 84H88.3684L85.2164 79.472L88.1284 75.296H86.1444L84.2244 78.288L82.2884 75.296H80.2724L83.2004 79.472L80.0644 84ZM96.4208 80.944C96.0688 81.808 95.1568 82.688 93.7008 82.704C92.0368 82.704 90.7248 81.44 90.7248 79.648C90.7248 78.768 91.0608 77.952 91.5728 77.44C92.1808 76.864 92.8208 76.576 93.7008 76.592C94.8848 76.592 95.9728 77.248 96.4208 78.416H98.1328C97.5888 76.32 95.7168 75.04 93.6368 75.04C91.0288 75.04 89.0608 77.072 89.0608 79.648C89.0608 82.064 90.8688 84.256 93.7168 84.256C95.8928 84.256 97.6048 82.832 98.1328 80.944H96.4208ZM108.256 80.176C108.4 78.72 107.968 77.36 106.944 76.32C106.112 75.504 104.976 75.04 103.728 75.04C101.088 75.04 99.1363 77.168 99.1363 79.664C99.1363 81.968 100.896 84.256 103.744 84.256C104.624 84.256 105.488 84.016 106.224 83.52C106.96 83.04 107.568 82.32 107.984 81.36H106.256C105.776 82.272 104.912 82.832 103.744 82.832C102.432 82.832 100.896 81.936 100.816 80.176H108.256ZM100.848 78.88C100.928 77.696 102.032 76.464 103.728 76.464C105.376 76.432 106.528 77.728 106.608 78.88H100.848ZM109.885 84H111.549V72.16H109.885V84ZM113.729 84H115.393V72.16H113.729V84ZM126.084 80.176C126.228 78.72 125.796 77.36 124.772 76.32C123.94 75.504 122.804 75.04 121.556 75.04C118.916 75.04 116.964 77.168 116.964 79.664C116.964 81.968 118.724 84.256 121.572 84.256C122.452 84.256 123.316 84.016 124.052 83.52C124.788 83.04 125.396 82.32 125.812 81.36H124.084C123.604 82.272 122.74 82.832 121.572 82.832C120.26 82.832 118.724 81.936 118.644 80.176H126.084ZM118.676 78.88C118.756 77.696 119.86 76.464 121.556 76.464C123.204 76.432 124.356 77.728 124.436 78.88H118.676ZM127.713 84H129.377V79.152C129.377 77.648 130.129 76.624 131.761 76.608C133.457 76.592 134.065 77.712 134.065 79.28V84H135.745V78.896C135.745 77.088 135.009 75.072 132.225 75.04C130.673 75.024 129.697 75.744 129.281 76.64V75.296H127.713V84ZM138.509 84H140.173V76.592H141.853V75.296H140.173V72.16H138.509V75.296H136.941V76.592H138.509V84Z" fill="white"/>
</svg>
