<svg width="116" height="94" viewBox="0 0 116 94" fill="none" xmlns="http://www.w3.org/2000/svg">
<path d="M34.036 39L42.572 26.504C44.112 24.128 45.52 21.356 45.52 17.924C45.52 15.46 44.772 12.292 42.792 10.048C40.68 7.364 37.204 5.824 33.2 5.824C26.468 5.824 21.056 10.884 21.056 17.924C21.056 25.096 26.38 28.924 31.396 28.924C32.408 28.924 33.64 28.616 33.992 28.44C33.552 29.1 33.068 29.716 32.584 30.42L26.468 39H34.036ZM39.052 17.352C39.052 20.96 36.28 23.16 33.288 23.16C30.032 23.16 27.612 20.608 27.612 17.308C27.612 14.052 30.164 11.588 33.332 11.588C36.412 11.588 39.052 13.876 39.052 17.308V17.352ZM48.0088 27.736C48.0088 36.624 55.2688 39.616 59.8448 39.616C64.3768 39.616 71.4168 36.624 71.4168 27.736V17.704C71.4168 8.904 64.3328 5.824 59.7568 5.824C55.7088 5.824 48.0088 8.376 48.0088 17.792V27.736ZM54.5648 17.572C54.5648 14.712 56.0168 11.588 59.6688 11.588C64.1568 11.588 64.8608 15.68 64.8608 17.528V27.912C64.8608 30.42 63.3648 33.852 59.7128 33.852C56.1488 33.852 54.5648 30.86 54.5648 27.912V17.572ZM73.8015 23.394C73.8015 26.04 75.9345 28.146 78.5535 28.146C81.1995 28.146 83.3055 26.04 83.3055 23.394C83.3055 20.721 81.2265 18.642 78.5535 18.642C75.9075 18.642 73.8015 20.721 73.8015 23.367V23.394ZM76.2585 23.394C76.2585 22.044 77.2575 21.045 78.5535 21.045C79.8765 21.045 80.8755 22.044 80.8755 23.367C80.8755 24.717 79.8225 25.716 78.5535 25.716C77.2575 25.716 76.2585 24.69 76.2585 23.421V23.394ZM84.7635 34.626C84.7635 37.326 86.9235 39.378 89.5425 39.378C92.1345 39.378 94.2945 37.299 94.2945 34.626C94.2945 31.98 92.1885 29.874 89.5425 29.874C86.8695 29.874 84.7635 31.98 84.7635 34.599V34.626ZM87.2205 34.626C87.2205 33.303 88.1925 32.277 89.5425 32.277C90.8385 32.277 91.8375 33.276 91.8375 34.626C91.8375 35.949 90.8385 36.975 89.5425 36.975C88.2195 36.975 87.2205 35.949 87.2205 34.653V34.626ZM89.9205 19.02H87.3555L78.0675 39H80.6325L89.9205 19.02Z" fill="#F0E714"/>
<path d="M3.024 84V78.816H8.128V84H10.016V72.16H8.128V77.152H3.024V72.16H1.136V84H3.024ZM21.1239 75.296H19.4599V76.832C19.0599 76 17.9559 75.04 16.2279 75.04C13.6999 75.04 11.7639 76.992 11.7639 79.648C11.7639 82.08 13.4279 84.256 16.2279 84.256C17.6039 84.256 18.8519 83.648 19.4599 82.48V84H21.1239V75.296ZM13.4279 79.664C13.4279 78.032 14.6119 76.592 16.4359 76.592C17.8279 76.592 18.8039 77.376 19.2199 78.384C19.4119 78.784 19.4919 79.232 19.4759 79.68C19.4599 80.128 19.3639 80.576 19.1719 80.976C18.7399 81.968 17.7959 82.704 16.4679 82.704C14.3559 82.704 13.4439 80.976 13.4279 79.68V79.664ZM23.3224 87.168H24.9864V84V82.56C25.3704 83.264 26.4424 84.256 28.2504 84.256C30.8584 84.256 32.6344 82.16 32.6344 79.696C32.6344 77.536 31.2264 75.04 28.2344 75.04C26.6824 75.04 25.5624 75.776 24.9064 76.816V75.296H23.3224V87.168ZM30.9544 79.648C30.9544 81.344 29.6904 82.704 27.9304 82.704C27.0824 82.704 26.3144 82.368 25.7704 81.824C25.2264 81.28 24.9064 80.528 24.9064 79.664C24.9064 78.8 25.2264 78.032 25.7544 77.488C26.2984 76.928 27.0504 76.592 27.9144 76.592C29.9464 76.592 30.9544 78.208 30.9544 79.632V79.648ZM34.338 87.168H36.002V84V82.56C36.386 83.264 37.458 84.256 39.266 84.256C41.874 84.256 43.65 82.16 43.65 79.696C43.65 77.536 42.242 75.04 39.25 75.04C37.698 75.04 36.578 75.776 35.922 76.816V75.296H34.338V87.168ZM41.97 79.648C41.97 81.344 40.706 82.704 38.946 82.704C38.098 82.704 37.33 82.368 36.786 81.824C36.242 81.28 35.922 80.528 35.922 79.664C35.922 78.8 36.242 78.032 36.77 77.488C37.314 76.928 38.066 76.592 38.93 76.592C40.962 76.592 41.97 78.208 41.97 79.632V79.648ZM45.8586 87.168H47.6346L52.3866 75.296H50.5946L48.1626 81.664L45.7626 75.296H43.9706L47.2986 83.744L45.8586 87.168ZM72.2918 80.4C72.0358 80.832 70.9318 82.56 68.6438 82.56C66.1478 82.56 64.3558 80.528 64.3558 78.064C64.3558 75.664 66.1158 73.6 68.6278 73.6C70.7078 73.616 71.9078 75.056 72.2918 75.824H74.2918C73.7158 74.192 71.8278 71.952 68.6438 71.936C64.9798 71.936 62.4678 74.816 62.4678 78.064C62.4678 81.424 65.0918 84.224 68.6598 84.224C71.3478 84.224 73.5398 82.56 74.2758 80.4H72.2918ZM75.9005 84H77.5645V72.16H75.9005V84ZM79.7443 73.92H81.4083V72.16H79.7443V73.92ZM79.7443 84H81.4083V75.296H79.7443V84ZM92.1 80.176C92.244 78.72 91.812 77.36 90.788 76.32C89.956 75.504 88.82 75.04 87.572 75.04C84.932 75.04 82.98 77.168 82.98 79.664C82.98 81.968 84.74 84.256 87.588 84.256C88.468 84.256 89.332 84.016 90.068 83.52C90.804 83.04 91.412 82.32 91.828 81.36H90.1C89.62 82.272 88.756 82.832 87.588 82.832C86.276 82.832 84.74 81.936 84.66 80.176H92.1ZM84.692 78.88C84.772 77.696 85.876 76.464 87.572 76.464C89.22 76.432 90.372 77.728 90.452 78.88H84.692ZM93.7286 84H95.3926V79.152C95.3926 77.648 96.1446 76.624 97.7766 76.608C99.4726 76.592 100.081 77.712 100.081 79.28V84H101.761V78.896C101.761 77.088 101.025 75.072 98.2406 75.04C96.6886 75.024 95.7126 75.744 95.2966 76.64V75.296H93.7286V84ZM104.525 84H106.189V76.592H107.869V75.296H106.189V72.16H104.525V75.296H102.957V76.592H104.525V84Z" fill="white"/>
</svg>
