<svg width="124" height="30" viewBox="0 0 124 30" fill="none" xmlns="http://www.w3.org/2000/svg">
<path d="M13.3675 0.657227V10.292H4.30135V0.657227H0V23.6567H4.30251V14.3346H13.3663V23.6567H17.67V0.657227H13.3675ZM31.4415 16.2229C31.4415 17.1448 31.0665 18.0289 30.3988 18.6807C29.7311 19.3326 28.8256 19.6988 27.8813 19.6988C26.9371 19.6988 26.0316 19.3326 25.3639 18.6807C24.6962 18.0289 24.3211 17.1448 24.3211 16.2229V6.37101H20.2399V16.2229C20.2399 18.1996 21.0441 20.0953 22.4758 21.4931C23.9074 22.8908 25.8491 23.676 27.8738 23.676C29.8984 23.676 31.8401 22.8908 33.2718 21.4931C34.7034 20.0953 35.5077 18.1996 35.5077 16.2229V6.37101H31.4415V16.2229ZM61.6826 7.38621C61.6826 5.36604 63.0508 4.72599 64.5494 4.72599C65.758 4.72599 67.3533 5.6241 68.3978 6.7132L71.0701 3.6369C69.7357 1.87479 67.0296 0.657227 64.8137 0.657227C60.3854 0.657227 57.1833 3.18898 57.1833 7.38621C57.1833 15.1736 66.9318 12.7021 66.9318 17.0608C66.9318 18.4045 65.595 19.5914 64.065 19.5914C61.6511 19.5914 60.8686 18.4397 59.7601 17.221L56.7932 20.2325C58.6912 22.5062 61.0317 23.6613 63.8344 23.6613C68.0414 23.6613 71.4252 21.0988 71.4252 17.0926C71.4252 8.44802 61.6756 11.1344 61.6756 7.38621H61.6826ZM121.992 19.9824C119.581 19.9824 118.895 18.9638 118.895 17.4041V10.4978H122.644V6.99854H118.895V2.38182L114.757 4.19509V18.2624C114.757 21.8605 117.3 23.6738 120.786 23.6738C121.333 23.6829 121.881 23.6397 122.418 23.5464L123.428 19.9176C122.973 19.9483 122.45 19.979 121.992 19.979V19.9824ZM46.9772 6.48583C44.9557 6.48583 43.5445 7.0588 42.1798 8.36503V0.794785H38.0927V14.8269C38.0927 20.0791 41.9818 23.6783 46.353 23.6783C51.2017 23.6783 55.4669 20.0154 55.4669 15.0838C55.4669 10.2135 51.5417 6.48924 46.9772 6.48924V6.48583ZM46.9515 19.6619C46.3424 19.6619 45.7393 19.5447 45.1765 19.3171C44.6137 19.0895 44.1024 18.756 43.6717 18.3355C43.241 17.9149 42.8993 17.4157 42.6662 16.8663C42.4331 16.3168 42.3131 15.7279 42.3131 15.1332C42.3131 14.5385 42.4331 13.9496 42.6662 13.4002C42.8993 12.8508 43.241 12.3515 43.6717 11.931C44.1024 11.5105 44.6137 11.1769 45.1765 10.9493C45.7393 10.7218 46.3424 10.6046 46.9515 10.6046C48.1817 10.6046 49.3616 11.0817 50.2314 11.931C51.1013 12.7803 51.59 13.9322 51.59 15.1332C51.59 16.3343 51.1013 17.4862 50.2314 18.3355C49.3616 19.1847 48.1817 19.6619 46.9515 19.6619ZM91.3647 14.8746C91.3647 9.93388 87.1087 6.28006 82.2508 6.28006C77.8808 6.28006 73.9904 9.87817 73.9904 15.1315V29.1716H78.0775V21.5911C79.4399 22.895 80.8535 23.4703 82.8726 23.4703C87.4371 23.4703 91.3635 19.746 91.3635 14.8746H91.3647ZM87.4942 14.8246C87.4942 16.0256 87.0055 17.1775 86.1356 18.0268C85.2657 18.8761 84.0859 19.3532 82.8557 19.3532C81.6255 19.3532 80.4457 18.8761 79.5758 18.0268C78.706 17.1775 78.2173 16.0256 78.2173 14.8246C78.2173 13.6235 78.706 12.4716 79.5758 11.6224C80.4457 10.7731 81.6255 10.296 82.8557 10.296C84.0859 10.296 85.2657 10.7731 86.1356 11.6224C87.0055 12.4716 87.4942 13.6235 87.4942 14.8246Z" fill="#B9B9B9"/>
</svg>
